<svg width="34" height="41" viewBox="0 0 34 41" fill="none" xmlns="http://www.w3.org/2000/svg">
<path d="M15.6816 1.0824C16.4667 0.805868 17.3322 0.805868 18.1374 1.0824L31.4029 5.53234C32.8925 6.02264 33.8989 7.39744 33.8989 8.92717L33.9998 22.2025C34.0197 26.2229 32.5503 30.1257 29.8529 33.1871C28.625 34.5992 27.0347 35.7955 25.0218 36.8742L17.8757 40.6985C17.6543 40.8162 17.4127 40.875 17.1712 40.875C16.9296 40.875 16.6679 40.8162 16.4465 40.6985L9.2401 36.9722C7.20701 35.9132 5.61676 34.7365 4.36872 33.344C1.63109 30.3238 0.101233 26.421 0.0811032 22.4006L0.00028796 9.12133C-0.0195452 7.5916 0.986938 6.22072 2.4564 5.70885L15.6816 1.0824ZM14.2725 15.5933C13.6888 15.0245 12.7427 15.0245 12.1388 15.5933C11.555 16.1836 11.555 17.1053 12.1388 17.6741L14.8563 20.3197L12.1388 22.9693C11.555 23.5381 11.555 24.4794 12.1388 25.0482C12.4407 25.3424 12.8232 25.4777 13.2056 25.4777C13.6082 25.4777 13.9907 25.3424 14.2725 25.0482L16.99 22.4006L19.7075 25.0482C20.0095 25.3424 20.3919 25.4777 20.7744 25.4777C21.1569 25.4777 21.5595 25.3424 21.8413 25.0482C22.425 24.4794 22.425 23.5381 21.8413 22.9693L19.1238 20.3197L21.8413 17.6741C22.425 17.1053 22.425 16.1836 21.8413 15.5933C21.2575 15.0245 20.2913 15.0245 19.7075 15.5933L16.99 18.2428L14.2725 15.5933Z" fill="#FF3B3B"/>
</svg>
