<svg width="34" height="41" viewBox="0 0 34 41" fill="none" xmlns="http://www.w3.org/2000/svg">
<path d="M18.1415 1.07413L31.4164 5.52803C32.9023 6.02422 33.907 7.38922 33.9151 8.91897L33.9997 22.2003C34.0258 26.2266 32.558 30.1314 29.87 33.1909C28.6337 34.5951 27.0491 35.8013 25.0256 36.8799L17.8898 40.6945C17.6663 40.8121 17.4207 40.8729 17.173 40.875C16.9254 40.8769 16.6777 40.818 16.4562 40.7023L9.25403 36.976C7.20834 35.915 5.60964 34.7265 4.36129 33.3419C1.629 30.3138 0.110838 26.4267 0.0846633 22.3944L4.83529e-05 9.12293C-0.00795661 7.59123 0.978647 6.21642 2.45654 5.70062L15.681 1.08786C16.4663 0.809365 17.3422 0.803482 18.1415 1.07413ZM24.4896 15.3123C23.8956 14.7416 22.9392 14.7455 22.3533 15.3241L15.6162 21.9647L12.8578 19.3132C12.2638 18.7425 11.3094 18.7484 10.7215 19.3269C10.1355 19.9055 10.1416 20.8351 10.7355 21.4058L14.5672 25.0929C14.8652 25.3792 15.2518 25.5204 15.6384 25.5166C16.025 25.5145 16.4095 25.3694 16.7035 25.0791L24.5017 17.3912C25.0876 16.8126 25.0816 15.883 24.4896 15.3123Z" fill="#39D98A"/>
</svg>
